<svg version="1.1" xmlns="http://www.w3.org/2000/svg" viewBox="-7.242641687119287 -7.898980485566357 14.485283374238573 15.797960971132715" fill="none" stroke="black" stroke-width="0.6%" vector-effect="non-scaling-stroke">
    <path d="M -5.65685 3.26599 L -5.65685 -1.63299 L -1.41421 0.8165 A 2 1.1547 180 0 0 1.41421 0.8165 L 5.65685 -1.63299 A 2 1.1547 180 0 0 6.24264 -2.44949 A 2.0000000000000004 2.0000000000000004 0 0 0 5.24264 -4.18154 L 1 -6.63103 A 2.0000000000000004 2.0000000000000004 0 0 0 -1 -6.63103 L -5.24264 -4.18154 A 2 2 0 0 0 -6.24264 -2.44949" />
    <path d="M -5.65685 3.26599 L -1.41421 5.71548 L -1.41421 0.8165" />
    <path d="M -5.65685 3.26599 A 2 1.1547 360 0 1 -6.24264 2.44949 L -6.24264 -2.44949" />
    <path d="M -5.65685 -1.63299 A 2 1.1547 360 0 1 -6.24264 -2.44949" />
    <path d="M -5.24264 4.18154 A 2 1.1547 120 0 1 -5.65685 3.26599" />
    <path d="M -1 6.63103 A 2 1.1547 120 0 1 -1.41421 5.71548 A 2 1.1547 180 0 0 1.41421 5.71548 L 5.65685 3.26599 A 2 1.1547 180 0 0 6.24264 2.44949 L 6.24264 -2.44949" />
    <path d="M -4.24264 -4.08248 A 2 1.1547 300 0 0 -5.65685 -1.63299" />
    <path d="M -4.24264 -4.08248 L 0 -1.63299 L 4.24264 -4.08248 A 2 1.1547 120 0 1 5.24264 -4.18154" />
    <path d="M 0 -1.63299 A 2 1.1547 300 0 0 -1.41421 0.8165" />
    <path d="M 1.41421 5.71548 L 1.41421 0.8165" />
    <path d="M -4.24264 -4.08248 A 2 1.1547 60 0 0 -5.24264 -4.18154" />
    <path d="M 1 6.63103 A 2 1.1547 60 0 0 1.41421 5.71548" />
    <path d="M 0 -6.53197 L -4.24264 -4.08248" />
    <path d="M 4.24264 -4.08248 L 0 -6.53197 A 2 1.1547 120 0 1 1 -6.63103" />
    <path d="M 0 -1.63299 A 2 1.1547 240 0 1 1.41421 0.8165" />
    <path d="M 5.65685 3.26599 L 5.65685 -1.63299" />
    <path d="M 0 -6.53197 A 2 1.1547 60 0 0 -1 -6.63103" />
    <path d="M 5.24264 4.18154 A 2 1.1547 60 0 0 5.65685 3.26599" />
    <path d="M 4.24264 -4.08248 A 2 1.1547 240 0 1 5.65685 -1.63299" />
    <path d="M -5.24264 4.18154 L -1 6.63103 A 2.0000000000000004 2.0000000000000004 0 0 0 1 6.63103 L 5.24264 4.18154 A 2 2 0 0 0 6.24264 2.44949" />
    <path d="M -6.24264 2.44949 A 2.0000000000000004 2.0000000000000004 0 0 0 -5.24264 4.18154" />
</svg>